<svg width="300" height="210" viewBox="0 0 300 210" fill="none" xmlns="http://www.w3.org/2000/svg">
<rect x="30" y="20" width="70" height="20" fill="#A3A3A3"/>
<rect x="20" y="30" width="60" height="20" fill="#A3A3A3"/>
<rect x="20" y="50" width="20" height="50" fill="#A3A3A3"/>
<rect x="30" y="30" width="20" height="50" fill="#A3A3A3"/>
<rect x="40" y="50" width="20" height="20" fill="#A3A3A3"/>
<rect x="50" y="40" width="20" height="20" fill="#A3A3A3"/>
<rect x="10" y="10" width="10" height="10" fill="#A3A3A3"/>
<rect width="70" height="20" transform="matrix(-1 0 0 1 270 20)" fill="#A3A3A3"/>
<rect width="60" height="20" transform="matrix(-1 0 0 1 280 30)" fill="#A3A3A3"/>
<rect width="20" height="50" transform="matrix(-1 0 0 1 280 50)" fill="#A3A3A3"/>
<rect width="20" height="50" transform="matrix(-1 0 0 1 270 30)" fill="#A3A3A3"/>
<rect width="20" height="20" transform="matrix(-1 0 0 1 260 50)" fill="#A3A3A3"/>
<rect width="20" height="20" transform="matrix(-1 0 0 1 250 40)" fill="#A3A3A3"/>
<rect width="10" height="10" transform="matrix(-1 0 0 1 290 10)" fill="#A3A3A3"/>
<rect x="80" y="50" width="140" height="60" fill="#A3A3A3"/>
<rect x="40" y="100" width="20" height="80" fill="#A3A3A3"/>
<rect x="240" y="100" width="20" height="80" fill="#A3A3A3"/>
<rect x="210" y="60" width="20" height="60" fill="#A3A3A3"/>
<rect x="50" y="80" width="20" height="60" fill="#A3A3A3"/>
<rect x="50" y="140" width="20" height="60" fill="#A3A3A3"/>
<rect x="230" y="140" width="20" height="60" fill="#A3A3A3"/>
<rect x="220" y="70" width="20" height="60" fill="#A3A3A3"/>
<rect x="70" y="60" width="20" height="60" fill="#A3A3A3"/>
<rect x="120" y="110" width="60" height="10" fill="#A3A3A3"/>
<rect x="130" y="120" width="40" height="10" fill="#A3A3A3"/>
<rect x="140" y="130" width="20" height="10" fill="#A3A3A3"/>
<rect x="230" y="80" width="20" height="60" fill="#A3A3A3"/>
<rect x="60" y="70" width="20" height="60" fill="#A3A3A3"/>
<rect width="10" height="30" fill="black"/>
<rect width="10" height="30" transform="matrix(-1 0 0 1 300 0)" fill="black"/>
<rect x="20" width="10" height="30" fill="black"/>
<rect width="10" height="30" transform="matrix(-1 0 0 1 280 0)" fill="black"/>
<rect x="100" y="20" width="10" height="30" fill="black"/>
<rect x="60" y="140" width="10" height="50" fill="black"/>
<rect width="10" height="30" transform="matrix(-1 0 0 1 200 20)" fill="black"/>
<rect x="10" y="30" width="10" height="70" fill="black"/>
<rect x="30" y="100" width="10" height="80" fill="black"/>
<rect x="260" y="100" width="10" height="80" fill="black"/>
<rect x="230" y="140" width="10" height="50" fill="black"/>
<rect width="10" height="70" transform="matrix(-1 0 0 1 290 30)" fill="black"/>
<rect width="30" height="10" fill="black"/>
<rect width="30" height="10" transform="matrix(-1 0 0 1 300 0)" fill="black"/>
<rect y="20" width="30" height="10" fill="black"/>
<rect width="30" height="10" transform="matrix(-1 0 0 1 300 20)" fill="black"/>
<rect x="20" y="100" width="20" height="10" fill="black"/>
<rect x="60" y="200" width="180" height="10" fill="black"/>
<rect width="20" height="10" transform="matrix(-1 0 0 1 280 100)" fill="black"/>
<rect x="50" y="70" width="10" height="10" fill="black"/>
<rect x="40" y="180" width="10" height="10" fill="black"/>
<rect x="50" y="190" width="10" height="10" fill="black"/>
<rect x="50" y="190" width="10" height="10" fill="black"/>
<rect x="70" y="130" width="10" height="10" fill="black"/>
<rect x="140" y="190" width="10" height="10" fill="black"/>
<rect x="70" y="190" width="10" height="10" fill="black"/>
<rect x="220" y="190" width="10" height="10" fill="black"/>
<rect x="240" y="190" width="10" height="10" fill="black"/>
<rect x="250" y="180" width="10" height="10" fill="black"/>
<rect x="80" y="160" width="10" height="10" fill="black"/>
<rect x="90" y="150" width="10" height="10" fill="black"/>
<rect x="100" y="160" width="10" height="10" fill="black"/>
<rect x="210" y="160" width="10" height="10" fill="black"/>
<rect x="80" y="120" width="10" height="10" fill="black"/>
<rect x="120" y="120" width="10" height="10" fill="black"/>
<rect x="130" y="130" width="10" height="10" fill="black"/>
<rect x="160" y="130" width="10" height="10" fill="black"/>
<rect x="170" y="120" width="10" height="10" fill="black"/>
<rect x="220" y="130" width="10" height="10" fill="black"/>
<rect x="210" y="140" width="10" height="10" fill="black"/>
<rect x="210" y="120" width="10" height="10" fill="black"/>
<rect x="140" y="140" width="20" height="10" fill="black"/>
<rect x="90" y="110" width="30" height="10" fill="black"/>
<rect x="90" y="110" width="30" height="10" fill="black"/>
<rect x="190" y="150" width="20" height="30" fill="black"/>
<rect x="180" y="110" width="30" height="10" fill="black"/>
<rect width="10" height="10" transform="matrix(-1 0 0 1 250 70)" fill="black"/>
<rect x="40" y="80" width="10" height="20" fill="black"/>
<rect width="10" height="20" transform="matrix(-1 0 0 1 260 80)" fill="black"/>
<rect x="60" y="60" width="10" height="10" fill="black"/>
<rect width="10" height="10" transform="matrix(-1 0 0 1 240 60)" fill="black"/>
<rect x="70" y="50" width="10" height="10" fill="black"/>
<rect width="10" height="10" transform="matrix(-1 0 0 1 230 50)" fill="black"/>
<rect x="80" y="40" width="10" height="10" fill="black"/>
<rect x="90" y="40" width="130" height="10" fill="black"/>
<rect x="30" y="10" width="70" height="10" fill="black"/>
<rect width="70" height="10" transform="matrix(-1 0 0 1 270 10)" fill="black"/>
<rect x="130" y="70" width="40" height="10" fill="#F09FDA"/>
<rect x="170" y="80" width="10" height="20" fill="#F09FDA"/>
<rect x="120" y="80" width="10" height="20" fill="#F09FDA"/>
<rect x="130" y="100" width="10" height="10" fill="#F09FDA"/>
<rect x="160" y="100" width="10" height="10" fill="#F09FDA"/>
<rect x="80" y="180" width="20" height="20" fill="#F09FDA"/>
<rect x="200" y="180" width="20" height="20" fill="#F09FDA"/>
<rect x="140" y="170" width="20" height="10" fill="#F09FDA"/>
<rect x="140" y="80" width="20" height="40" fill="#F09FDA"/>
</svg>
